<?xml version="1.0" encoding="UTF-8"?>
<svg xmlns="http://www.w3.org/2000/svg" xmlns:xlink="http://www.w3.org/1999/xlink" width="365pt" height="114.13pt" viewBox="0 0 365 114.13" version="1.1">
<defs>
<clipPath id="clip1">
  <path d="M 0 9 L 79 9 L 79 114.128906 L 0 114.128906 Z M 0 9 "/>
</clipPath>
</defs>
<g id="surface1">
<path style=" stroke:none;fill-rule:nonzero;fill:rgb(0.799561%,0.799561%,0.799561%);fill-opacity:1;" d="M 268.492188 40.238281 L 294.566406 40.238281 C 291.738281 36.058594 286.929688 33.316406 281.542969 33.316406 C 276.117188 33.316406 271.320313 36.058594 268.492188 40.238281 M 281.542969 82.480469 C 263.101563 82.480469 248.109375 67.488281 248.109375 49.074219 C 248.109375 30.644531 263.101563 15.65625 281.542969 15.65625 C 299.957031 15.65625 314.933594 30.644531 314.933594 49.074219 L 314.933594 57.898438 L 268.492188 57.898438 C 271.320313 62.0625 276.117188 64.816406 281.542969 64.816406 C 284.941406 64.816406 289.675781 64.804688 292.40625 62.777344 L 301.425781 75.902344 C 295.632813 80.203125 288.746094 82.480469 281.542969 82.480469 "/>
<g clip-path="url(#clip1)" clip-rule="nonzero">
<path style=" stroke:none;fill-rule:nonzero;fill:rgb(0.799561%,0.799561%,0.799561%);fill-opacity:1;" d="M 45.429688 33.316406 C 54.109375 33.316406 61.179688 40.371094 61.179688 49.074219 C 61.179688 57.75 54.109375 64.820313 45.429688 64.820313 C 36.734375 64.820313 29.683594 57.75 29.683594 49.074219 C 29.683594 40.371094 36.734375 33.316406 45.429688 33.316406 M 62.738281 90.597656 C 56.84375 87.347656 48.691406 87.238281 40.058594 87.101563 C 32.679688 87.003906 21.558594 86.839844 18.597656 83.589844 C 17.839844 82.761719 17.101563 81.355469 17.078125 79.128906 C 17.054688 75.917969 19 73.542969 21.113281 71.914063 C 27.21875 78.402344 35.84375 82.480469 45.429688 82.480469 C 63.835938 82.480469 78.835938 67.488281 78.835938 49.074219 C 78.835938 39.445313 74.714844 30.769531 68.179688 24.679688 L 78.53125 22.316406 L 74.4375 9.230469 L 52.808594 16.507813 C 50.441406 15.964844 47.96875 15.667969 45.429688 15.667969 C 27.003906 15.667969 12.019531 30.648438 12.019531 49.074219 C 12.019531 52.363281 12.511719 55.535156 13.394531 58.539063 C 6.992188 61.828125 0.839844 67.773438 0.0976563 77.636719 C -0.460938 84.914063 1.375 90.921875 5.558594 95.503906 C 13.660156 104.378906 27.546875 104.574219 39.792969 104.773438 C 44.578125 104.835938 51.144531 103.921875 54.042969 105.972656 C 58.234375 108.953125 57.554688 114.128906 57.554688 114.128906 L 72.382813 114.007813 C 72.589844 112.261719 73.929688 96.726563 62.738281 90.597656 "/>
</g>
<path style=" stroke:none;fill-rule:nonzero;fill:rgb(0.799561%,0.799561%,0.799561%);fill-opacity:1;" d="M 115.179688 64.816406 C 106.5 64.816406 99.421875 57.75 99.421875 49.0625 C 99.421875 40.382813 106.5 33.316406 115.179688 33.316406 C 123.863281 33.316406 130.9375 40.386719 130.9375 49.0625 C 130.9375 57.75 123.863281 64.816406 115.179688 64.816406 M 115.179688 15.667969 C 96.753906 15.667969 81.769531 30.644531 81.769531 49.0625 C 81.769531 67.488281 96.753906 82.480469 115.179688 82.480469 C 120.878906 82.480469 126.242188 81.042969 130.9375 78.523438 L 130.9375 81.292969 L 148.59375 81.292969 L 148.59375 49.0625 C 148.59375 30.644531 133.609375 15.667969 115.179688 15.667969 "/>
<path style=" stroke:none;fill-rule:nonzero;fill:rgb(0.799561%,0.799561%,0.799561%);fill-opacity:1;" d="M 237.445313 23.492188 C 234.210938 19.917969 228.164063 15.65625 217.96875 15.65625 C 209.21875 15.65625 203.460938 18.78125 199.878906 21.898438 C 196.367188 18.769531 190.71875 15.65625 182.023438 15.65625 C 171.824219 15.65625 165.660156 19.882813 162.292969 23.429688 C 154.714844 31.386719 154.636719 42.324219 154.714844 44.535156 L 154.714844 81.574219 L 172.367188 81.574219 L 172.367188 44.253906 L 172.355469 44.019531 C 172.316406 42.511719 172.722656 38.023438 175.128906 35.539063 C 175.671875 34.984375 177.304688 33.304688 182.023438 33.304688 C 186.503906 33.304688 187.933594 34.847656 188.402344 35.355469 C 190.140625 37.21875 190.632813 40.410156 190.71875 42.324219 L 190.683594 44.535156 L 190.683594 81.574219 L 208.332031 81.574219 L 208.332031 44.699219 L 208.378906 42.722656 C 208.550781 40.71875 209.195313 37.507813 211.097656 35.542969 C 211.644531 34.984375 213.273438 33.304688 217.96875 33.304688 C 222.46875 33.304688 223.902344 34.847656 224.382813 35.355469 C 226.570313 37.714844 226.769531 42.25 226.683594 43.574219 L 226.644531 81.574219 L 244.296875 81.574219 L 244.296875 44.699219 C 244.464844 42.042969 244.628906 31.351563 237.445313 23.492188 "/>
<path style=" stroke:none;fill-rule:nonzero;fill:rgb(97.999573%,65.098572%,20.799255%);fill-opacity:1;" d="M 325.304688 15.679688 L 325.304688 28.570313 C 325.304688 32.945313 325.441406 34.589844 328.605469 34.589844 C 330.359375 34.589844 333.707031 34.378906 333.707031 34.378906 L 334.015625 40.582031 C 334.015625 40.582031 329.789063 41.472656 327.589844 41.472656 C 320.296875 41.472656 318.097656 38.679688 318.097656 29.582031 L 318.097656 15.679688 L 314.117188 15.679688 L 314.117188 9.167969 L 318.097656 9.167969 L 318.097656 -0.00390625 L 325.304688 -0.00390625 L 325.304688 9.167969 L 333.828125 9.167969 L 333.828125 15.679688 L 325.304688 15.679688 "/>
<path style=" stroke:none;fill-rule:nonzero;fill:rgb(97.999573%,65.098572%,20.799255%);fill-opacity:1;" d="M 343.632813 9.167969 L 349.636719 34.699219 L 350.601563 35.777344 L 351.542969 34.699219 L 357.671875 9.167969 L 365 9.167969 L 356.878906 37.171875 C 356.878906 37.171875 355.25 41.410156 350.554688 41.410156 C 345.730469 41.410156 344.101563 37.171875 344.101563 37.171875 L 336.117188 9.167969 L 343.632813 9.167969 "/>
</g>
</svg>
